#!OML:ASF H:\Terrain\Patient Classification 1\Takeo\Monday\TakeoMonday.ASF
:FULLY-SPECIFIED
:DEGREES
1565
root 10.5519 15.1789 -0.766963 10.7478 2.25462 6.38619
lowerback 34.0866 -0.00301703 8.03008
upperback 13.5917 2.30021 -3.33646
thorax -1.98345 1.66066 -8.49328
lowerneck -12.183 -12.6856 -10.1145
upperneck -13.4653 -15.2778 12.4363
head -0.355783 -7.47166 4.6653
rclavicle 3.49861e-014 -4.45278e-014
rhumerus 60.0262 -24.5277 -43.7108
rradius 19.7831
rwrist 6.99697
rhand -25.1108 21.6669
rfingers 7.12502
rthumb 1.40452 -8.30818
lclavicle 3.49861e-014 -4.45278e-014
lhumerus -18.4526 -16.7406 90.1951
lradius 107.247
lwrist 20.641
lhand -29.1301 1.0203
lfingers 7.12502
lthumb -2.47732 30.9857
rfemur -42.6349 -37.1493 17.8493
rtibia 82.6261
rfoot -38.3416 -30.5267
rtoes 0.783854
lfemur -57.3426 -5.38502 -31.0813
ltibia 67.1549
lfoot -14.6262 -4.58177
ltoes 2.99618
1566
root 10.5296 15.1433 -0.75174 10.8431 2.43816 6.67007
lowerback 34.2618 0.235282 7.82822
upperback 13.8951 2.54646 -3.34186
thorax -1.68265 1.80671 -8.46105
lowerneck -11.839 -13.0467 -10.7027
upperneck -14.2982 -15.676 12.842
head -0.53219 -7.66935 4.88759
rclavicle -1.27222e-014 -3.97569e-015
rhumerus 61.5261 -26.3676 -44.5746
rradius 18.1323
rwrist 8.79164
rhand -24.6687 20.688
rfingers 7.12502
rthumb 1.83151 -9.28391
lclavicle -1.27222e-014 -3.97569e-015
lhumerus -18.2832 -16.8121 90.3793
lradius 107.266
lwrist 20.7195
lhand -29.0551 1.20629
lfingers 7.12502
lthumb -2.40492 31.1725
rfemur -42.9434 -37.3094 17.6449
rtibia 83.2238
rfoot -38.816 -30.138
rtoes 1.24709
lfemur -57.6124 -5.42325 -31.3595
ltibia 67.61
lfoot -14.8832 -4.75253
ltoes 2.32882
1567
root 10.5054 15.1132 -0.729934 10.7774 2.69723 6.81162
lowerback 34.4911 0.362358 7.69473
upperback 14.2959 2.67873 -3.3645
thorax -1.31117 1.90833 -8.44675
lowerneck -11.2481 -13.3496 -11.4902
upperneck -15.4361 -15.9548 13.8225
head -0.765331 -7.81818 5.34235
rclavicle 7.95139e-015 7.15625e-015
rhumerus 63.3139 -28.1201 -45.9922
rradius 16.6527
rwrist 10.6409
rhand -25.0181 20.1743
rfingers 7.12502
rthumb 1.49413 -9.80017
lclavicle 7.95139e-015 7.15625e-015
lhumerus -17.9369 -16.5228 90.4438
lradius 107.223
lwrist 20.6424
lhand -28.9212 0.95422
lfingers 7.12502
lthumb -2.27556 30.9218
rfemur -42.9768 -37.448 17.4552
rtibia 83.7661
rfoot -38.9104 -29.753
rtoes 2.52825
lfemur -57.6511 -5.39655 -31.5069
ltibia 68.0609
lfoot -15.0089 -4.93471
ltoes 3.09841
1568
root 10.4915 15.0847 -0.706682 10.8557 3.08631 6.58822
lowerback 34.7056 0.169951 7.7111
upperback 14.4492 2.45587 -3.53648
thorax -1.25605 1.82003 -8.57276
lowerneck -10.9675 -13.2493 -11.4805
upperneck -16.0086 -15.7877 14.3233
head -0.939632 -7.76051 5.54463
rclavicle -7.95139e-015 9.54166e-015
rhumerus 64.9676 -28.9036 -47.9406
rradius 15.9819
rwrist 11.8256
rhand -25.735 19.3488
rfingers 7.12502
rthumb 0.801669 -10.6295
lclavicle -7.95139e-015 9.54166e-015
lhumerus -18.0425 -15.5544 90.0788
lradius 107.289
lwrist 20.4734
lhand -28.8553 0.75981
lfingers 7.12502
lthumb -2.21193 30.7281
rfemur -43.1155 -37.6326 17.7326
rtibia 84.2311
rfoot -38.6303 -29.6263
rtoes 3.68372
lfemur -57.8879 -5.48108 -31.2576
ltibia 68.5183
lfoot -15.2042 -5.09881
ltoes 4.06054
1569
root 10.4799 15.0542 -0.680072 11.0801 3.6618 6.67758
lowerback 34.7529 0.0136148 7.3783
upperback 14.5084 2.17321 -3.57254
thorax -1.27654 1.67139 -8.34669
lowerneck -10.9861 -13.0875 -11.1056
upperneck -16.1942 -15.6141 14.0188
head -1.07208 -7.68631 5.42895
rclavicle 3.81667e-014 -7.15625e-015
rhumerus 65.5833 -29.0065 -48.1853
rradius 15.7878
rwrist 11.1636
rhand -26.464 18.549
rfingers 7.12502
rthumb 0.0975807 -11.4308
lclavicle 3.81667e-014 -7.15625e-015
lhumerus -18.5431 -14.655 90.0468
lradius 107.415
lwrist 20.4316
lhand -28.9919 0.512679
lfingers 7.12502
lthumb -2.34392 30.4795
rfemur -43.3193 -38.1283 17.6896
rtibia 84.691
rfoot -38.4225 -29.4807
rtoes 3.53513
lfemur -58.1935 -5.87497 -31.3219
ltibia 68.9517
lfoot -15.5167 -5.3278
ltoes 4.03991
1570
root 10.4644 15.0224 -0.651311 11.2121 4.30313 6.87185
lowerback 34.8268 -0.104908 6.9174
upperback 14.595 1.90783 -3.50406
thorax -1.27674 1.52303 -7.94396
lowerneck -11.0605 -13.021 -11.0304
upperneck -16.379 -15.5172 13.9858
head -1.13607 -7.64029 5.42244
rclavicle 1.11319e-014 -1.27222e-014
rhumerus 65.693 -28.8786 -47.4156
rradius 15.7107
rwrist 9.83616
rhand -27.1227 18.5548
rfingers 7.12502
rthumb -0.538561 -11.4242
lclavicle 1.11319e-014 -1.27222e-014
lhumerus -19.1207 -13.8148 90.177
lradius 107.603
lwrist 20.379
lhand -28.8919 0.528426
lfingers 7.12502
lthumb -2.24733 30.4963
rfemur -43.3531 -38.7019 17.4781
rtibia 85.1501
rfoot -38.2402 -29.4186
rtoes 2.24837
lfemur -58.3707 -6.36939 -31.4523
ltibia 69.3757
lfoot -15.7162 -5.57361
ltoes 4.4733
1571
root 10.4476 14.9912 -0.632693 11.2466 4.83604 6.75362
lowerback 35.0372 -0.279595 6.98227
upperback 14.6505 1.73154 -3.56885
thorax -1.31581 1.44731 -7.99465
lowerneck -11.0016 -13.043 -11.1193
upperneck -16.447 -15.518 14.3206
head -1.12163 -7.64768 5.53739
rclavicle -9.54166e-015 -2.62396e-014
rhumerus 65.433 -28.9525 -46.8881
rradius 16.0547
rwrist 8.94147
rhand -27.6755 18.9669
rfingers 7.12502
rthumb -1.07252 -11.0101
lclavicle -9.54166e-015 -2.62396e-014
lhumerus -19.5379 -13.3123 90.018
lradius 107.64
lwrist 20.486
lhand -28.6628 0.481974
lfingers 7.12502
lthumb -2.02602 30.4521
rfemur -43.3064 -38.9484 17.6324
rtibia 85.5753
rfoot -37.7734 -29.696
rtoes 0.617964
lfemur -58.5883 -6.68003 -31.2346
ltibia 69.8097
lfoot -15.7614 -5.77683
ltoes 5.49781
1572
root 10.4338 14.9584 -0.624444 11.3926 5.21274 6.62493
lowerback 35.2764 -0.345159 7.06563
upperback 14.6037 1.69439 -3.62936
thorax -1.45192 1.4312 -8.09603
lowerneck -11.0283 -13.0788 -10.9771
upperneck -16.1514 -15.6062 14.1731
head -1.04636 -7.6927 5.45051
rclavicle 6.52014e-014 -4.37326e-014
rhumerus 64.6497 -29.041 -46.0697
rradius 16.7678
rwrist 8.2758
rhand -28.0008 19.3236
rfingers 7.12502
rthumb -1.38673 -10.6517
lclavicle 6.52014e-014 -4.37326e-014
lhumerus -19.9491 -13.1379 89.9165
lradius 107.632
lwrist 20.7832
lhand -28.8989 0.412104
lfingers 7.12502
lthumb -2.25409 30.3799
rfemur -43.5461 -38.9133 17.8887
rtibia 86.0511
rfoot -37.0208 -30.2747
rtoes -1.09516
lfemur -58.9558 -6.84159 -31.0668
ltibia 70.2252
lfoot -15.8378 -5.83998
ltoes 4.91385
1573
root 10.4277 14.9279 -0.616256 11.7068 5.59853 6.61053
lowerback 35.2206 -0.40201 7.0058
upperback 14.765 1.60967 -3.62057
thorax -1.27395 1.40336 -8.02422
lowerneck -11.8289 -13.2122 -10.905
upperneck -15.6986 -15.7473 14.047
head -0.80047 -7.73604 5.32093
rclavicle -1.59028e-015 9.54166e-015
rhumerus 64.3519 -29.2696 -45.276
rradius 17.2429
rwrist 8.04294
rhand -28.1566 19.7308
rfingers 7.12502
rthumb -1.53717 -10.2435
lclavicle -1.59028e-015 9.54166e-015
lhumerus -19.9729 -12.8855 89.9127
lradius 107.656
lwrist 20.9188
lhand -29.2604 0.143758
lfingers 7.12502
lthumb -2.60316 30.1076
rfemur -44.0497 -39.0109 18.0762
rtibia 86.5679
rfoot -36.5003 -30.5302
rtoes -1.54702
lfemur -59.4405 -7.12888 -31.019
ltibia 70.6086
lfoot -15.8564 -5.88501
ltoes 4.87406
1574
root 10.419 14.9004 -0.612293 11.9755 6.10171 6.46646
lowerback 35.0863 -0.605278 7.14397
upperback 15.0212 1.3999 -3.66254
thorax -0.978765 1.33558 -8.07172
lowerneck -12.2652 -13.2819 -10.9867
upperneck -15.7943 -15.7617 14.3968
head -0.720806 -7.73479 5.40956
rclavicle -4.29375e-014 6.44062e-014
rhumerus 64.0631 -29.3807 -44.3394
rradius 17.7022
rwrist 7.46676
rhand -28.0171 20.215
rfingers 7.12502
rthumb -1.40238 -9.76009
lclavicle -4.29375e-014 6.44062e-014
lhumerus -19.7263 -12.4788 89.7225
lradius 107.555
lwrist 20.8887
lhand -28.9322 0.06658
lfingers 7.12502
lthumb -2.28627 30.0341
rfemur -44.4676 -39.2203 18.4108
rtibia 87.0455
rfoot -36.7401 -30.243
rtoes -0.420795
lfemur -59.9599 -7.51398 -30.7536
ltibia 70.9919
lfoot -15.5794 -6.18818
ltoes 7.65245
